<svg xmlns="http://www.w3.org/2000/svg" viewBox="0 0 646.62 29.83"><title>Asset 1</title><g id="Layer_2" data-name="Layer 2"><g id="Layer_1-2" data-name="Layer 1"><path d="M380.65,16.94v12.8h13V16.94Z"/><path d="M393.63.62H364.42V29.74h13.9V14.58l15.31,0Z"/><path d="M405.49.66H423c6.88,0,11.84,1.56,11.84,8.68a8.23,8.23,0,0,1-8.12,8.56l8.92,11.84h-7L420.17,18.3h-9V29.74h-5.68Zm16.63,12.92c4.64,0,7-.68,7-4.12s-2.36-4.08-7-4.08H411.17v8.2Z"/><path d="M444,.66h26.08V5.54h-20.4V12.3h17.56v4.88H449.72v7.68H470.6v4.88H444Z"/><path d="M478.16.66h5.68v24h21.07v5H478.16Z"/><path d="M523.47.66H530l14.12,29.08h-6l-3-6.68H518.27l-3.08,6.68h-6Zm9.32,17.52-6.08-13-6.08,13Z"/><path d="M556,5.54H543V.66h31.68V5.54h-13v24.2H556Z"/><path d="M582,.66H608V5.54h-20.4V12.3h17.56v4.88H587.63v7.68h20.88v4.88H582Z"/><path d="M616.06.66h14c9.2,0,16.56,3.88,16.56,14.36,0,9.92-6.72,14.72-16.32,14.72H616.06Zm11.44,24.2c9.68,0,13.44-3,13.44-9.76,0-7.12-3.92-9.56-13.44-9.56h-5.75V24.86Z"/><path d="M41.24,25.59H57.3v3.67H37.19V.53h20v3.7H41.24v8.4h15v3.63h-15ZM69.49,4.2h9.22V29.26H82.8V4.2h9.26V.53H69.49ZM146.34.53h-4V29.26h19.28V25.59H146.34Zm40.54,0L200.3,29.26h-4.53L192.93,23H177.62l-2.83,6.24h-4.54L183.67.53Zm4.39,18.79-6-13.23-6,13.23Zm70.08-4.42,15-14.37h-5.21l-14,13.5V.53h-4V29.26h4V16.18L271,29.26h5.6ZM225.16,26A10.74,10.74,0,0,1,214.5,14.93c0-6.27,4.68-11.11,10.66-11.11a9.72,9.72,0,0,1,9.42,6.39h4.32A13.83,13.83,0,0,0,225.16,0a14.69,14.69,0,0,0-14.75,14.93,14.66,14.66,0,0,0,14.75,14.9,13.67,13.67,0,0,0,13.76-10.52h-4.23A9.73,9.73,0,0,1,225.16,26ZM18.09,18.86c0,4.24-2.76,7.26-6.92,7.26S4.63,23.31,4.1,19.66a25.93,25.93,0,0,1-.16-3.44H0a24.2,24.2,0,0,0,.23,4.27c.83,5.52,4.84,9.3,10.92,9.3,6.58,0,11-4.54,11-10.93V.49H18.09Zm110.24,1.82c0,5.14-3.89,8.58-10.06,8.58H105V.53h12.59C122.7.53,126,3.36,126,7.75c0,2.42-1,4.94-2.61,6C126.52,15.07,128.33,17.16,128.33,20.68Zm-19.24-8.06h8.73A4.31,4.31,0,0,0,122,8.09c0-2.38-1.67-3.86-4.39-3.86h-8.54Zm15.31,7.83c0-3.13-2.38-4.55-6.31-4.55h-9v9.66h9.18C122.06,25.56,124.4,23.55,124.4,20.45Z"/><path d="M312.39,13.51h-5.06V24H305.9V13.51H303v-1.3h2.88v-2c0-2.59,1.09-4.4,3.89-4.4a6,6,0,0,1,3.17.87l-.51,1.19a5.14,5.14,0,0,0-2.57-.72c-1.83,0-2.55,1.13-2.55,3.06v2h5.06Z"/><path d="M326.24,18.1a6.11,6.11,0,0,1-12.22,0,6.11,6.11,0,0,1,12.22,0Zm-10.77,0a4.66,4.66,0,1,0,9.31,0,4.66,4.66,0,1,0-9.31,0Z"/><path d="M337.08,12.46l-.37,1.39a4.61,4.61,0,0,0-2.08-.47c-2,0-3.36,1.58-3.36,4V24h-1.42V12.21h1.4v2a4.11,4.11,0,0,1,3.63-2.2A5,5,0,0,1,337.08,12.46Z"/></g></g></svg>