<svg id="Layer_1" data-name="Layer 1" xmlns="http://www.w3.org/2000/svg" viewBox="0 0 144 144"><defs><style>.cls-1{fill:#e3ccc6;}.cls-2,.cls-3{fill:none;}.cls-2,.cls-3,.cls-4{stroke:#231f20;stroke-width:2px;}.cls-2,.cls-4{stroke-miterlimit:10;}.cls-3{stroke-linejoin:bevel;}.cls-4{fill:#fff;}</style></defs><title>BLK_RELATED_Icons_1.0</title><rect class="cls-1" x="62.36" y="67.75" width="33.85" height="63.08"/><rect class="cls-2" x="57.69" y="62.84" width="33.85" height="63.08"/><line class="cls-2" x1="74.62" y1="109.6" x2="74.62" y2="62.84"/><polygon class="cls-3" points="57.69 125.92 91.54 125.92 74.62 109.59 57.69 125.92"/><path class="cls-2" d="M57.69,62.84,69,41.59s6.22-14.74,13.43,0,9.13,21.25,9.13,21.25"/><path class="cls-4" d="M72.73,34.55l-8-14.34-2.45,1s4.89,9,6.49,11.74A3.05,3.05,0,0,0,72.73,34.55Z"/><path class="cls-4" d="M76.2,35.68l-8-14.34-2.44,1s4.89,9,6.49,11.75A3.05,3.05,0,0,0,76.2,35.68Z"/><path class="cls-4" d="M79.32,36.53l-8-14.34-2.44,1s4.89,9,6.48,11.74A3.06,3.06,0,0,0,79.32,36.53Z"/><path class="cls-4" d="M32.36,16.64s19.16-3.15,21-2.84S72,16.26,75.32,18.23,84.39,37,84.39,37s-3.52,1.68-5-.47-6.06-10.82-6.06-10.82a4.55,4.55,0,0,0-4.89-2.37c-3.37.69-8.69.4-8.48,3.67s7,5.44,7,5.44,11.74,2.5,7.54,8.63l-9.43-1.39s-5-.72-7.29-.3-3.48,1.16-12.24-4.06c0,0-11.34-5-14.54-4.89"/></svg>