<svg id="Layer_1" data-name="Layer 1" xmlns="http://www.w3.org/2000/svg" viewBox="0 0 102.1 94.78"><defs><style>.cls-1{fill:#e3ccc6;}.cls-2,.cls-3{fill:none;}.cls-2,.cls-3,.cls-4{stroke:#231f20;stroke-width:1.56px;}.cls-2,.cls-4{stroke-miterlimit:10;}.cls-3{stroke-linejoin:bevel;}.cls-4{fill:#fff;}</style></defs><title>BLK_RELATED_Icons_1.0</title><rect class="cls-1" x="26.31" y="44.07" width="26.39" height="49.19"/><rect class="cls-2" x="22.67" y="40.24" width="26.39" height="49.19"/><line class="cls-2" x1="35.87" y1="76.7" x2="35.87" y2="40.24"/><polygon class="cls-3" points="22.68 89.43 49.07 89.43 35.87 76.69 22.68 89.43"/><path class="cls-2" d="M22.67,40.24l8.8-16.57s4.86-11.5,10.48,0,7.12,16.57,7.12,16.57"/><path class="cls-4" d="M34.4,18.18,28.13,7l-1.91.8S30,14.8,31.28,17A2.37,2.37,0,0,0,34.4,18.18Z"/><path class="cls-4" d="M37.11,19.06,30.83,7.88l-1.9.79s3.81,7,5,9.16A2.4,2.4,0,0,0,37.11,19.06Z"/><path class="cls-4" d="M39.54,19.73,33.26,8.55l-1.9.79s3.81,7,5.06,9.15A2.38,2.38,0,0,0,39.54,19.73Z"/><path class="cls-4" d="M2.93,4.21S17.86,1.76,19.33,2s14.5,1.92,17.09,3.46,7.07,14.6,7.07,14.6-2.74,1.31-3.92-.37-4.72-8.43-4.72-8.43A3.54,3.54,0,0,0,31,9.41c-2.63.53-6.77.31-6.61,2.86s5.46,4.24,5.46,4.24,9.15,1.95,5.88,6.73l-7.35-1.08a25.75,25.75,0,0,0-5.68-.24c-1.81.33-2.72.91-9.55-3.16,0,0-8.84-3.88-11.33-3.82"/></svg>