<svg id="Layer_1" data-name="Layer 1" xmlns="http://www.w3.org/2000/svg" viewBox="0 0 92.79 73.5"><defs><style>.cls-1{fill:#e3ccc6;}.cls-2{fill:none;}.cls-2,.cls-3{stroke:#231f20;stroke-miterlimit:10;stroke-width:2px;}.cls-3{fill:#fff;}</style></defs><title>BLK_RELATED_Icons_1.0</title><path class="cls-1" d="M6.23,17.55V73.32h86.6V17.55ZM49.89,64.47a19,19,0,1,1,19-19A19,19,0,0,1,49.89,64.47Z"/><rect class="cls-2" x="1.62" y="12.58" width="86.6" height="55.77"/><circle class="cls-2" cx="44.92" cy="40.46" r="19.03"/><circle class="cls-2" cx="44.92" cy="40.46" r="13.46"/><rect class="cls-2" x="11.69" y="9.11" width="10.72" height="3.47"/><polygon class="cls-3" points="55.2 1.38 34.64 1.38 31.46 12.58 58.38 12.58 55.2 1.38"/><line class="cls-2" x1="56.3" y1="25.2" x2="88.22" y2="25.2"/><line class="cls-2" x1="1.62" y1="25.2" x2="33.54" y2="25.2"/><line class="cls-2" x1="56.19" y1="55.8" x2="88.22" y2="55.8"/><line class="cls-2" x1="1.62" y1="55.8" x2="33.65" y2="55.8"/></svg>