<svg id="Layer_1" data-name="Layer 1" xmlns="http://www.w3.org/2000/svg" viewBox="0 0 102.1 94.78"><defs><style>.cls-1{fill:#e3ccc6;}.cls-2{fill:none;}.cls-2,.cls-3{stroke:#231f20;stroke-miterlimit:10;stroke-width:2px;}.cls-3{fill:#fff;}</style></defs><title>BLK_RELATED_Icons_1.0</title><path class="cls-1" d="M5.67,24.8V80.57h86.6V24.8ZM49.34,71.72a19,19,0,1,1,19-19A19,19,0,0,1,49.34,71.72Z"/><rect class="cls-2" x="1.06" y="19.83" width="86.6" height="55.77"/><circle class="cls-2" cx="44.36" cy="47.71" r="19.03"/><circle class="cls-2" cx="44.36" cy="47.71" r="13.46"/><rect class="cls-2" x="11.14" y="16.36" width="10.72" height="3.47"/><polygon class="cls-3" points="54.64 8.63 34.08 8.63 30.9 19.83 57.82 19.83 54.64 8.63"/><line class="cls-2" x1="55.74" y1="32.45" x2="87.66" y2="32.45"/><line class="cls-2" x1="1.06" y1="32.45" x2="32.99" y2="32.45"/><line class="cls-2" x1="55.63" y1="63.05" x2="87.66" y2="63.05"/><line class="cls-2" x1="1.06" y1="63.05" x2="33.1" y2="63.05"/></svg>