<svg id="Layer_1" data-name="Layer 1" xmlns="http://www.w3.org/2000/svg" viewBox="0 0 144 144"><defs><style>.cls-1{fill:#e3ccc6;}.cls-2{fill:none;}.cls-2,.cls-3{stroke:#231f20;stroke-miterlimit:10;stroke-width:2px;}.cls-3{fill:#fff;}</style></defs><title>BLK_RELATED_Icons_1.0</title><path class="cls-1" d="M28.18,51.47v55.77h86.6V51.47ZM71.84,98.39a19,19,0,1,1,19-19A19,19,0,0,1,71.84,98.39Z"/><rect class="cls-2" x="23.57" y="46.5" width="86.6" height="55.77"/><circle class="cls-2" cx="66.87" cy="74.38" r="19.03"/><circle class="cls-2" cx="66.87" cy="74.38" r="13.46"/><rect class="cls-2" x="33.64" y="43.03" width="10.72" height="3.47"/><polygon class="cls-3" points="77.15 35.3 56.59 35.3 53.41 46.5 80.33 46.5 77.15 35.3"/><line class="cls-2" x1="78.24" y1="59.12" x2="110.17" y2="59.12"/><line class="cls-2" x1="23.57" y1="59.12" x2="55.49" y2="59.12"/><line class="cls-2" x1="78.13" y1="89.72" x2="110.17" y2="89.72"/><line class="cls-2" x1="23.57" y1="89.72" x2="55.6" y2="89.72"/></svg>