<svg id="Layer_1" data-name="Layer 1" xmlns="http://www.w3.org/2000/svg" viewBox="0 0 144 144"><defs><style>.cls-1{fill:#e3ccc6;}.cls-2{fill:none;stroke:#000;stroke-miterlimit:10;stroke-width:2px;}</style></defs><title>BLK_RELATED_Icons_1.0</title><rect class="cls-1" x="51.28" y="31.17" width="50.14" height="93.49" rx="5.44"/><path class="cls-2" d="M76.73,61.16a12.35,12.35,0,0,1,20.33-9.42V32.2a5.44,5.44,0,0,0-5.43-5.43H52.36a5.45,5.45,0,0,0-5.44,5.43V51.74a12.35,12.35,0,1,1,0,18.84v44.24a5.45,5.45,0,0,0,5.44,5.43H91.63a5.44,5.44,0,0,0,5.43-5.43V70.58a12.35,12.35,0,0,1-20.33-9.42Z"/><path class="cls-2" d="M46.92,51.74a12.36,12.36,0,0,0,0,18.84"/><path class="cls-2" d="M46.92,70.58a12.35,12.35,0,1,0,0-18.84"/><path class="cls-2" d="M97.06,70.58a12.34,12.34,0,0,0,0-18.84"/><path class="cls-2" d="M97.06,51.74a12.35,12.35,0,1,0,0,18.84"/><path class="cls-2" d="M67.25,61.16a13.68,13.68,0,0,1,9.48,0"/><line class="cls-2" x1="42.56" y1="61.16" x2="37.95" y2="61.16"/><line class="cls-2" x1="106.04" y1="61.16" x2="101.43" y2="61.16"/><line class="cls-2" x1="46.92" y1="38.7" x2="97.06" y2="38.7"/><line class="cls-2" x1="46.92" y1="102.28" x2="97.06" y2="102.28"/><circle class="cls-2" cx="71.99" cy="110.17" r="3.07"/></svg>