<svg id="Layer_1" data-name="Layer 1" xmlns="http://www.w3.org/2000/svg" viewBox="0 0 92.79 120.06"><defs><style>.cls-1{fill:#e3ccc6;}.cls-2{fill:none;stroke:#231f20;stroke-miterlimit:10;stroke-width:2px;}</style></defs><title>BLK_RELATED_Icons_1.0</title><path class="cls-1" d="M92.06,38.64c.11-17.15-13.1-31-29.25-31S33.56,21.49,33.56,38.64c0,0-.35,22.68,29.25,42.8C62.81,81.44,91.9,63.16,92.06,38.64Z"/><path class="cls-2" d="M28.28,27.2a22.34,22.34,0,0,0-3.86-.34C11.84,26.86,1.64,37.69,1.64,51c0,0-.27,17.67,22.78,33.34,0,0,12.65-7.95,19.09-19.94"/><polygon class="cls-2" points="29.66 89.61 24.42 84.38 19.18 89.61 29.66 89.61"/><path class="cls-2" d="M86.28,32.89c.12-17.15-13.09-31-29.24-31S27.79,15.74,27.79,32.89c0,0-.35,22.68,29.25,42.8C57,75.69,86.12,57.41,86.28,32.89Z"/><polygon class="cls-2" points="62.99 81.64 57.04 75.69 51.09 81.64 62.99 81.64"/><path class="cls-2" d="M56.85,81.67s5.75,3.24,5.59,7.54-6.95,7.94-6.95,13.19,6.93,6.6,6.95,9.31"/><path class="cls-2" d="M24.22,89.61s5.76,3.24,5.59,7.55-6.95,7.94-6.95,13.19,6.93,6.6,7,9.31"/></svg>