<svg id="Layer_1" data-name="Layer 1" xmlns="http://www.w3.org/2000/svg" viewBox="0 0 144 144"><defs><style>.cls-1{fill:#e3ccc6;}.cls-2{fill:none;stroke:#231f20;stroke-miterlimit:10;stroke-width:2px;}</style></defs><title>BLK_RELATED_Icons_1.0</title><path class="cls-1" d="M118.66,48c.11-17.15-13.09-31.05-29.25-31.05S60.17,30.8,60.17,48c0,0-.36,22.68,29.24,42.8C89.41,90.75,118.5,72.47,118.66,48Z"/><path class="cls-2" d="M54.88,36.51A22.26,22.26,0,0,0,51,36.17C38.44,36.17,28.24,47,28.24,60.35c0,0-.27,17.67,22.78,33.34,0,0,12.65-8,19.1-19.94"/><polygon class="cls-2" points="56.26 98.92 51.02 93.69 45.79 98.92 56.26 98.92"/><path class="cls-2" d="M112.89,42.2c.11-17.15-13.1-31.05-29.25-31.05S54.39,25.05,54.39,42.2c0,0-.35,22.68,29.25,42.8C83.64,85,112.73,66.73,112.89,42.2Z"/><polygon class="cls-2" points="89.59 90.95 83.64 85 77.69 90.95 89.59 90.95"/><path class="cls-2" d="M83.45,91s5.76,3.24,5.59,7.55-6.94,7.94-6.94,13.18S89,118.31,89,121"/><path class="cls-2" d="M50.82,98.92s5.76,3.24,5.59,7.55-6.94,7.94-6.94,13.19,6.92,6.6,6.94,9.31"/></svg>