<svg id="Layer_1" data-name="Layer 1" xmlns="http://www.w3.org/2000/svg" viewBox="0 0 102.1 94.78"><defs><style>.cls-1{fill:#e3ccc6;}.cls-2{fill:none;stroke:#231f20;stroke-miterlimit:10;stroke-width:2px;}</style></defs><title>BLK_RELATED_Icons_1.0</title><path class="cls-1" d="M72.32,30.19C72.41,16.73,62.05,5.83,49.37,5.83S26.42,16.73,26.42,30.19c0,0-.27,17.8,22.95,33.58C49.37,63.77,72.2,49.43,72.32,30.19Z"/><path class="cls-2" d="M22.28,21.22a16.9,16.9,0,0,0-3-.27c-9.87,0-17.87,8.49-17.87,19,0,0-.22,13.87,17.87,26.16,0,0,9.92-6.24,15-15.64"/><polygon class="cls-2" points="23.36 70.19 19.25 66.08 15.14 70.19 23.36 70.19"/><path class="cls-2" d="M67.79,25.68c.09-13.45-10.27-24.36-23-24.36s-23,10.91-23,24.36c0,0-.27,17.8,23,33.59C44.84,59.27,67.67,44.92,67.79,25.68Z"/><polygon class="cls-2" points="49.51 63.94 44.84 59.27 40.17 63.94 49.51 63.94"/><path class="cls-2" d="M44.7,64s4.51,2.54,4.38,5.92-5.45,6.23-5.45,10.34,5.44,5.18,5.45,7.31"/><path class="cls-2" d="M19.09,70.19s4.52,2.54,4.39,5.92S18,82.34,18,86.46s5.43,5.18,5.45,7.3"/></svg>